<svg width="80" height="80" viewBox="0 0 80 80" fill="none" xmlns="http://www.w3.org/2000/svg">
<path d="M10.8263 41.3988C11.5068 37.5725 14.8335 34.7852 18.7199 34.7852H61.2719C65.1577 34.7852 68.484 37.5716 69.1652 41.3972L74.3223 70.3624C75.197 75.2753 71.4192 79.7852 66.4291 79.7852H13.5689C8.57941 79.7852 4.80179 75.2765 5.67537 70.3641L10.8263 41.3988Z" fill="#DBD9FF"/>
<path d="M15.48 43.5953C16.1681 39.7775 19.4909 37 23.3702 37H56.6231C60.5018 37 63.8243 39.7766 64.5131 43.5936L68.2963 64.5588C69.1838 69.4772 65.4041 74 60.4064 74H19.5916C14.5945 74 10.815 69.4784 11.7013 64.5605L15.48 43.5953Z" fill="white"/>
<path d="M11.1406 67.8125L32.9034 67.8125C35.6993 67.8125 38.0688 65.7545 38.4603 62.9862L39.1932 57.8036L39.214 57.3739C39.3591 54.3836 41.8258 52.0337 44.8196 52.0337L66.7512 52.0337" stroke="#DBD9FF" stroke-width="2" stroke-dasharray="5 5"/>
<path d="M40 0C30.6256 0 23 8.05313 23 17.9531C23 21.1781 24.4381 25.2469 27.3854 30.3938C29.8355 34.6688 32.8715 38.9156 35.5436 42.6563C36.7775 44.3813 37.9405 46.0125 38.8371 47.3625C39.1034 47.7656 39.5384 48 40 48C40.4616 48 40.8966 47.7656 41.1629 47.3625C42.0595 46.0125 43.2225 44.3813 44.4564 42.6563C47.1285 38.9156 50.1556 34.6688 52.6146 30.3938C55.5619 25.2469 57 21.1781 57 17.9531C57 8.05313 49.3744 0 40 0Z" fill="#BAB6FF"/>
<circle cx="40" cy="16.5156" r="10.5" fill="white"/>
<path d="M39.9922 11.2227V17.6366" stroke="#5640FF" stroke-width="2" stroke-linecap="round" stroke-linejoin="round"/>
<path d="M39.9922 22.6602H40.0082" stroke="#5640FF" stroke-width="2" stroke-linecap="round" stroke-linejoin="round"/>
</svg>
